<svg id="Group_32" data-name="Group 32" xmlns="http://www.w3.org/2000/svg" width="177" height="58.266" viewBox="0 0 177 58.266">
  <g id="Group_1" data-name="Group 1" transform="translate(0 0)">
    <path id="Path_1" data-name="Path 1" d="M32.8,12.656c0,7.257-6.5,12.656-14.978,12.656H6.908V40.638H0V0H17.822C26.3,0,32.8,5.4,32.8,12.656Zm-7.141,0c0-6.908-3.831-11.494-9.637-11.494H6.908V24.15h9.115C21.828,24.15,25.66,19.564,25.66,12.656Z" fill="#ca8342"/>
    <path id="Path_2" data-name="Path 2" d="M135.422,40.638h-7.664a9.311,9.311,0,0,1-2.844-3.367l-5.805-11.2a6.536,6.536,0,0,0-3.019-2.845h-8.36V40.638h-6.909V0h16.662c8.476,0,14.978,4.877,14.978,11.611,0,5.979-5.109,10.508-12.249,11.437,3.193.7,5.863,2.263,7.083,4.818l4.586,8.36A12.724,12.724,0,0,0,135.422,40.638ZM107.731,22.06h8.244c5.632,0,9.347-4.122,9.347-10.45s-3.715-10.449-9.347-10.449h-8.244Z" transform="translate(-61.463)" fill="#ca8342"/>
    <path id="Path_3" data-name="Path 3" d="M202.686,0h6.908V40.638h-6.908Z" transform="translate(-123.562)" fill="#ca8342"/>
    <path id="Path_4" data-name="Path 4" d="M287.667,0V40.638h-6.909V2.554L264.444,30.421h-.928L247.2,2.554V40.638h-1.394V0h7.606l13.526,23.048L280.525,0Z" transform="translate(-149.85)" fill="#ca8342"/>
    <path id="Path_5" data-name="Path 5" d="M407.622,39.477v1.161H378.3V0h28.737V1.161H385.214V19.448H402.4v1.161H385.214V39.477Z" transform="translate(-230.622)" fill="#ca8342"/>
  </g>
  <g id="Group_2" data-name="Group 2" transform="translate(95.228 47.508)">
    <path id="Path_6" data-name="Path 6" d="M448.286,138.456a.887.887,0,0,1,1.255,0,.842.842,0,0,1,.266.621.893.893,0,0,1-1.786,0,.84.84,0,0,1,.265-.622" transform="translate(-368.351 -131.755)" fill="#fff"/>
    <path id="Path_7" data-name="Path 7" d="M290.484,126.337a2.111,2.111,0,0,1,1.007.688,1.85,1.85,0,0,1,.408,1.209,2.079,2.079,0,0,1-.761,1.685,3.133,3.133,0,0,1-2.062.635l-3.324,0-.009-7.913,3.188,0a2.774,2.774,0,0,1,1.826.563,1.876,1.876,0,0,1-.273,3.086Zm-3.358-.415,1.831,0q1.21,0,1.209-1.064t-1.211-1.061l-1.831,0Zm0,3.414,2.137,0q1.311,0,1.31-1.143t-1.312-1.14l-2.137,0Z" transform="translate(-269.423 -122.273)" fill="#fff"/>
    <path id="Path_8" data-name="Path 8" d="M308.63,131.413l-4.318,0a1.556,1.556,0,0,0,.481,1.09,1.58,1.58,0,0,0,1.114.4,1.407,1.407,0,0,0,1.479-1l1.12.066.045.057a2.718,2.718,0,0,1-.965,1.46,2.775,2.775,0,0,1-1.7.51,2.71,2.71,0,0,1-2.053-.806,2.952,2.952,0,0,1-.777-2.13,2.851,2.851,0,0,1,.829-2.115,2.731,2.731,0,0,1,1.994-.827,2.662,2.662,0,0,1,1.985.772,2.888,2.888,0,0,1,.765,2.119Zm-4.3-.934,3.086,0a1.323,1.323,0,0,0-.488-.955,1.626,1.626,0,0,0-1.051-.344,1.516,1.516,0,0,0-1.547,1.3" transform="translate(-279.977 -125.616)" fill="#fff"/>
    <path id="Path_9" data-name="Path 9" d="M319.924,124.565l0,1.243h1.266v1.017l-1.266,0,0,3.064q0,.588.645.587a2.2,2.2,0,0,0,.531-.068l.034.022v1.029a4.015,4.015,0,0,1-.949.114,1.582,1.582,0,0,1-1.142-.4,1.547,1.547,0,0,1-.42-1.17l0-3.177h-1.051v-1.017h1.051l0-1.662h.1Z" transform="translate(-288.828 -123.191)" fill="#fff"/>
    <path id="Path_10" data-name="Path 10" d="M329.106,124.555l0,1.244,1.266,0v1.017l-1.266,0,0,3.064q0,.588.645.587a2.164,2.164,0,0,0,.531-.068l.034.023v1.029a3.973,3.973,0,0,1-.949.114,1.58,1.58,0,0,1-1.142-.4,1.548,1.548,0,0,1-.42-1.17l0-3.177-1.147,0V125.8h1.147l0-1.662h.1Z" transform="translate(-294.367 -123.185)" fill="#fff"/>
    <path id="Path_11" data-name="Path 11" d="M342.335,131.377l-4.318,0a1.558,1.558,0,0,0,.482,1.09,1.577,1.577,0,0,0,1.114.4,1.408,1.408,0,0,0,1.48-1l1.119.066.045.057a2.716,2.716,0,0,1-.965,1.46,2.774,2.774,0,0,1-1.7.51,2.709,2.709,0,0,1-2.053-.806,2.95,2.95,0,0,1-.776-2.13,2.851,2.851,0,0,1,.828-2.115,2.73,2.73,0,0,1,1.994-.827,2.662,2.662,0,0,1,1.985.772,2.889,2.889,0,0,1,.766,2.119Zm-4.3-.934,3.086,0a1.326,1.326,0,0,0-.487-.955,1.629,1.629,0,0,0-1.052-.343,1.515,1.515,0,0,0-1.547,1.3" transform="translate(-300.525 -125.594)" fill="#fff"/>
    <path id="Path_12" data-name="Path 12" d="M354.755,128.186v.7a2.12,2.12,0,0,1,1.627-.816,1.1,1.1,0,0,1,.486.09l-.169,1.04-.045.034a1.592,1.592,0,0,0-.373-.034,1.658,1.658,0,0,0-1.525,1.053l0,3.584-1.289,0-.006-5.652Z" transform="translate(-310.708 -125.583)" fill="#fff"/>
    <path id="Path_13" data-name="Path 13" d="M381.907,128.043a2.934,2.934,0,0,1,2.16.829,3.074,3.074,0,0,1,0,4.216,3.206,3.206,0,0,1-4.307,0,3.074,3.074,0,0,1,0-4.216,2.918,2.918,0,0,1,2.147-.833m0,1.142a1.642,1.642,0,0,0-1.22.482,2.063,2.063,0,0,0,0,2.634,1.806,1.806,0,0,0,2.453,0,2.063,2.063,0,0,0,0-2.634,1.657,1.657,0,0,0-1.233-.479" transform="translate(-326.229 -125.566)" fill="#fff"/>
    <path id="Path_14" data-name="Path 14" d="M397.789,128.133v.667a2.22,2.22,0,0,1,1.695-.782,1.451,1.451,0,0,1,1.414.8,2.585,2.585,0,0,1,1.842-.8,1.74,1.74,0,0,1,1.295.451,1.659,1.659,0,0,1,.448,1.22l0,4.092-1.289,0,0-3.764q0-.87-.826-.87a1.45,1.45,0,0,0-1.231.759l0,3.878h-1.289l0-3.742q0-.892-.8-.892a1.543,1.543,0,0,0-1.254.838l0,3.8-1.289,0-.006-5.652Z" transform="translate(-336.943 -125.549)" fill="#fff"/>
    <path id="Path_15" data-name="Path 15" d="M424.371,131.287l-4.319,0a1.556,1.556,0,0,0,.482,1.09,1.577,1.577,0,0,0,1.114.4,1.408,1.408,0,0,0,1.48-1l1.119.066.045.057a2.718,2.718,0,0,1-.965,1.46,2.774,2.774,0,0,1-1.7.51,2.711,2.711,0,0,1-2.053-.806,2.952,2.952,0,0,1-.776-2.13,2.853,2.853,0,0,1,.829-2.115A2.731,2.731,0,0,1,421.62,128a2.665,2.665,0,0,1,1.985.772,2.888,2.888,0,0,1,.765,2.119Zm-4.3-.933,3.086,0a1.324,1.324,0,0,0-.487-.955,1.623,1.623,0,0,0-1.052-.343,1.515,1.515,0,0,0-1.547,1.3" transform="translate(-350.535 -125.539)" fill="#fff"/>
    <path id="Path_16" data-name="Path 16" d="M437.5,129.826a1.012,1.012,0,0,0-.362-.638,1.1,1.1,0,0,0-.7-.22,1.122,1.122,0,0,0-.565.137.43.43,0,0,0-.237.4.524.524,0,0,0,.328.452,5.84,5.84,0,0,0,1.142.406,3.24,3.24,0,0,1,1.335.62,1.311,1.311,0,0,1,.431,1.028,1.677,1.677,0,0,1-.609,1.329,2.354,2.354,0,0,1-1.594.527,2.632,2.632,0,0,1-1.628-.467,2,2,0,0,1-.77-1.3l.023-.068,1.073-.182a1.19,1.19,0,0,0,1.313.96,1.244,1.244,0,0,0,.695-.182.571.571,0,0,0-.041-1,4.732,4.732,0,0,0-1.12-.388,2.9,2.9,0,0,1-1.3-.615,1.379,1.379,0,0,1-.431-1.056,1.4,1.4,0,0,1,.553-1.115,2.164,2.164,0,0,1,1.424-.459,2.413,2.413,0,0,1,1.476.422,1.751,1.751,0,0,1,.685,1.214l-.034.057Z" transform="translate(-359.968 -125.53)" fill="#fff"/>
    <path id="Path_17" data-name="Path 17" d="M368.334,124.693a2.018,2.018,0,0,0-1.448-.513,2.9,2.9,0,0,0-2,.827v-1.134l0-1.738-1.2-.44h-.093l0,2.179.007,6.074h1.289l0-3.742a2.269,2.269,0,0,1,.718-.651,1.734,1.734,0,0,1,.876-.244,1.149,1.149,0,0,1,.8.276,1.022,1.022,0,0,1,.306.8l0,3.561h1.289l0-3.855a1.832,1.832,0,0,0-.544-1.4" transform="translate(-316.882 -121.697)" fill="#fff"/>
    <path id="Path_18" data-name="Path 18" d="M448.076,137.7a1.091,1.091,0,0,1,1.55,0,1.049,1.049,0,0,1,.329.773,1.07,1.07,0,0,1-.327.781,1.075,1.075,0,0,1-1.55,0,1.07,1.07,0,0,1-.329-.78,1.048,1.048,0,0,1,.328-.773" transform="translate(-368.184 -131.255)" fill="#ef6079"/>
    <path id="Path_19" data-name="Path 19" d="M247.288,123.892a2.686,2.686,0,0,1,2.625,2.946,2.723,2.723,0,0,1-2.625,2.988,2.264,2.264,0,0,1-1.9-.913v.819h-1.452v-7.677h1.452v2.77A2.241,2.241,0,0,1,247.288,123.892Zm-.384,1.276a1.7,1.7,0,0,0,0,3.382,1.572,1.572,0,0,0,1.525-1.712A1.535,1.535,0,0,0,246.9,125.168Z" transform="translate(-243.937 -121.916)" fill="#fff"/>
    <path id="Path_20" data-name="Path 20" d="M263.967,127.069h1.581l-3.641,8.661h-1.581L261.6,132.8l-2.356-5.732h1.666l1.518,4.108Z" transform="translate(-253.268 -124.972)" fill="#fff"/>
  </g>
</svg>
