<svg id="prime-logo" xmlns="http://www.w3.org/2000/svg" width="197.71" height="45.393" viewBox="0 0 197.71 45.393">
  <g id="Group_1" data-name="Group 1">
    <path id="Path_1" data-name="Path 1" d="M36.638,14.136c0,8.106-7.263,14.136-16.731,14.136H7.716v17.12H0V0H19.908C29.375,0,36.638,6.031,36.638,14.136Zm-7.976,0C28.662,6.42,24.382,1.3,17.9,1.3H7.716V26.976H17.9C24.382,26.976,28.662,21.853,28.662,14.136Z" fill="#ca8342"/>
    <path id="Path_2" data-name="Path 2" d="M139.471,45.393h-8.56a10.4,10.4,0,0,1-3.177-3.761l-6.485-12.515a7.3,7.3,0,0,0-3.372-3.178h-9.338V45.393h-7.717V0h18.611c9.468,0,16.73,5.447,16.73,12.969,0,6.679-5.707,11.737-13.683,12.776,3.567.777,6.55,2.528,7.911,5.381l5.123,9.339A14.213,14.213,0,0,0,139.471,45.393ZM108.539,24.642h9.208c6.291,0,10.441-4.6,10.441-11.672S124.038,1.3,117.747,1.3h-9.208Z" transform="translate(-56.858 0)" fill="#ca8342"/>
    <path id="Path_3" data-name="Path 3" d="M202.686,0H210.4V45.393h-7.716Z" transform="translate(-114.304 0)" fill="#ca8342"/>
    <path id="Path_4" data-name="Path 4" d="M292.564,0V45.393h-7.717V2.853L266.625,33.98h-1.037L247.366,2.853V45.393h-1.557V0h8.5l15.109,25.745L284.587,0Z" transform="translate(-138.623 0)" fill="#ca8342"/>
    <path id="Path_5" data-name="Path 5" d="M411.053,44.1v1.3H378.3V0h32.1V1.3H386.022V21.724h19.2v1.3h-19.2V44.1Z" transform="translate(-213.343 0)" fill="#ca8342"/>
  </g>
</svg>
